<svg width="82" height="60" viewBox="0 0 82 60" fill="none" xmlns="http://www.w3.org/2000/svg">
<path d="M80.8 14.884L80.7 14.212L80.596 14.236C79.8852 10.9121 78.2478 7.85747 75.8733 5.4254C73.4988 2.99334 70.4842 1.2833 67.1784 0.493134C63.8725 -0.297029 60.4104 -0.135015 57.1928 0.960431C53.9751 2.05588 51.1334 4.03998 48.9964 6.68317C46.8594 9.32636 45.5145 12.5206 45.1173 15.8963C44.72 19.272 45.2867 22.6912 46.7517 25.7583C48.2167 28.8253 50.5202 31.4149 53.3957 33.2274C56.2711 35.0399 59.601 36.0011 63 36C63.892 36 64.748 35.864 65.6 35.74C65.324 36.668 65.04 37.612 64.584 38.46C64.128 39.692 63.416 40.76 62.708 41.836C62.116 43 61.072 43.788 60.304 44.784C59.5 45.752 58.404 46.396 57.536 47.2C56.684 48.04 55.568 48.46 54.68 49.052C53.752 49.584 52.944 50.172 52.08 50.452L49.924 51.34L48.028 52.128L49.964 59.884L52.352 59.308C53.116 59.116 54.048 58.892 55.108 58.624C56.192 58.424 57.348 57.876 58.636 57.376C59.904 56.804 61.38 56.424 62.748 55.508C64.124 54.636 65.712 53.908 67.112 52.74C68.468 51.536 70.104 50.492 71.312 48.964C72.632 47.532 73.936 46.028 74.948 44.316C76.12 42.684 76.916 40.892 77.756 39.12C78.516 37.348 79.128 35.536 79.628 33.776C80.576 30.248 81 26.896 81.164 24.028C81.3 21.156 81.22 18.768 81.052 17.04C80.9958 16.3184 80.9117 15.5992 80.8 14.884ZM36.8 14.884L36.7 14.212L36.596 14.236C35.8852 10.9121 34.2478 7.85747 31.8733 5.4254C29.4988 2.99334 26.4842 1.2833 23.1784 0.493134C19.8725 -0.297029 16.4104 -0.135015 13.1928 0.960431C9.97515 2.05588 7.13343 4.03998 4.99643 6.68317C2.85944 9.32636 1.51451 12.5206 1.11726 15.8963C0.720013 19.272 1.28668 22.6912 2.75171 25.7583C4.21673 28.8253 6.52022 31.4149 9.39566 33.2274C12.2711 35.0399 15.601 36.0011 19 36C19.892 36 20.748 35.864 21.6 35.74C21.324 36.668 21.04 37.612 20.584 38.46C20.128 39.692 19.416 40.76 18.708 41.836C18.116 43 17.072 43.788 16.304 44.784C15.5 45.752 14.404 46.396 13.536 47.2C12.684 48.04 11.568 48.46 10.68 49.052C9.75196 49.584 8.94396 50.172 8.07996 50.452L5.92396 51.34C4.71996 51.832 4.03196 52.12 4.03196 52.12L5.96796 59.876L8.35596 59.3C9.11996 59.108 10.052 58.884 11.112 58.616C12.196 58.416 13.352 57.868 14.64 57.368C15.908 56.796 17.384 56.416 18.752 55.5C20.128 54.628 21.716 53.9 23.116 52.732C24.472 51.528 26.108 50.484 27.316 48.956C28.636 47.524 29.94 46.02 30.952 44.308C32.124 42.676 32.92 40.884 33.76 39.112C34.52 37.34 35.132 35.528 35.632 33.768C36.58 30.24 37.004 26.888 37.168 24.02C37.304 21.148 37.224 18.76 37.056 17.032C36.9962 16.3132 36.9108 15.5967 36.8 14.884Z" fill="#E438CF"/>
</svg>
