<svg width="72" height="72" viewBox="0 0 72 72" fill="none" xmlns="http://www.w3.org/2000/svg">
<path d="M28.1397 64.938C30.7011 65.6388 33.3443 65.9959 35.9997 66L36.4227 65.997C37.9388 65.9781 39.4254 65.5763 40.7445 64.8289C42.0636 64.0815 43.1724 63.0127 43.9677 61.722C45.5937 59.094 45.7677 55.863 44.4267 53.082L43.8327 51.837C42.4737 49.011 43.5417 46.449 44.9967 44.994C46.4517 43.539 49.0197 42.471 51.8367 43.83H51.8397L53.0788 44.427C54.4412 45.0858 55.9481 45.3892 57.4593 45.3089C58.9705 45.2286 60.4368 44.7674 61.7217 43.968C63.0132 43.1732 64.0827 42.0646 64.8307 40.7455C65.5787 39.4263 65.9808 37.9393 65.9997 36.423C66.0373 33.627 65.6808 30.8396 64.9407 28.143C61.8267 16.662 51.8817 7.88099 40.2027 6.28799C30.7557 5.00699 21.4797 8.09399 14.7897 14.787C8.09975 21.48 4.99775 30.741 6.28775 40.2C7.87775 51.882 16.6617 61.824 28.1397 64.938ZM46.4997 18C47.6932 18 48.8378 18.4741 49.6817 19.318C50.5256 20.1619 50.9997 21.3065 50.9997 22.5C50.9997 23.6935 50.5256 24.8381 49.6817 25.682C48.8378 26.5259 47.6932 27 46.4997 27C45.3063 27 44.1617 26.5259 43.3178 25.682C42.4739 24.8381 41.9997 23.6935 41.9997 22.5C41.9997 21.3065 42.4739 20.1619 43.3178 19.318C44.1617 18.4741 45.3063 18 46.4997 18ZM31.4997 15C32.6932 15 33.8378 15.4741 34.6817 16.318C35.5256 17.1619 35.9997 18.3065 35.9997 19.5C35.9997 20.6935 35.5256 21.8381 34.6817 22.682C33.8378 23.5259 32.6932 24 31.4997 24C30.3063 24 29.1617 23.5259 28.3178 22.682C27.4739 21.8381 26.9997 20.6935 26.9997 19.5C26.9997 18.3065 27.4739 17.1619 28.3178 16.318C29.1617 15.4741 30.3063 15 31.4997 15ZM26.9997 46.518C26.9997 47.7115 26.5256 48.8561 25.6817 49.7C24.8378 50.5439 23.6932 51.018 22.4997 51.018C21.3063 51.018 20.1617 50.5439 19.3178 49.7C18.4739 48.8561 17.9997 47.7115 17.9997 46.518C17.9997 45.3245 18.4739 44.1799 19.3178 43.336C20.1617 42.4921 21.3063 42.018 22.4997 42.018C23.6932 42.018 24.8378 42.4921 25.6817 43.336C26.5256 44.1799 26.9997 45.3245 26.9997 46.518ZM19.4997 27.018C20.6936 27.0184 21.8384 27.493 22.6823 28.3375C23.5263 29.182 24.0001 30.3271 23.9997 31.521C23.9993 32.7149 23.5247 33.8597 22.6802 34.7036C21.8358 35.5475 20.6906 36.0214 19.4967 36.021C18.3029 36.0206 17.1581 35.546 16.3141 34.7015C15.4702 33.857 14.9963 32.7119 14.9967 31.518C14.9971 30.3241 15.4718 29.1793 16.3163 28.3354C17.1607 27.4915 18.3059 27.0176 19.4997 27.018Z" fill="#FF0200"/>
</svg>
