<svg xmlns="http://www.w3.org/2000/svg" width="72" height="72" fill="none" viewBox="0 0 72 72"><path fill="#FFE605" d="M63 12H9C8.20435 12 7.44129 12.3161 6.87868 12.8787C6.31607 13.4413 6 14.2044 6 15V57C6 57.7957 6.31607 58.5587 6.87868 59.1213C7.44129 59.6839 8.20435 60 9 60H63C63.7957 60 64.5587 59.6839 65.1213 59.1213C65.6839 58.5587 66 57.7957 66 57V15C66 14.2044 65.6839 13.4413 65.1213 12.8787C64.5587 12.3161 63.7957 12 63 12ZM60 45C57.6131 45 55.3239 45.9482 53.636 47.636C51.9482 49.3239 51 51.6131 51 54H21C21 51.6131 20.0518 49.3239 18.364 47.636C16.6761 45.9482 14.3869 45 12 45V27C14.3869 27 16.6761 26.0518 18.364 24.364C20.0518 22.6761 21 20.3869 21 18H51C51 20.3869 51.9482 22.6761 53.636 24.364C55.3239 26.0518 57.6131 27 60 27V45Z"/><path fill="#FFE605" d="M36 24C29.382 24 24 29.382 24 36C24 42.618 29.382 48 36 48C42.618 48 48 42.618 48 36C48 29.382 42.618 24 36 24ZM36 42C32.691 42 30 39.309 30 36C30 32.691 32.691 30 36 30C39.309 30 42 32.691 42 36C42 39.309 39.309 42 36 42Z"/></svg>